solid csg.js
facet normal -5.551115123125783e-17 5.551115123125783e-17 -1
outer loop
vertex 2.3599999999999968 12.4 5.573319583618287e-16
vertex 2.36 2.694222958124178e-17 -1.3100631690576846e-16
vertex -1.5053010847239246e-49 2.6942229581241773e-17 -1.2161151809056478e-33
endloop
endfacet
facet normal -5.551115123125783e-17 5.551115123125783e-17 -1
outer loop
vertex 2.3599999999999968 12.4 5.573319583618287e-16
vertex -1.5053010847239246e-49 2.6942229581241773e-17 -1.2161151809056478e-33
vertex -4.930380657631323e-33 12.4 6.883382752675971e-16
endloop
endfacet
facet normal 0 -0.9486832980505138 -0.31622776601683794
outer loop
vertex 2.242 0.44000000000000045 0.14666666666666595
vertex 2.1399999999999997 0.4400000000000004 0.1466666666666661
vertex 1.9599999999999997 0.4400000000000004 0.1466666666666661
endloop
endfacet
facet normal 0 -0.9486832980505138 -0.31622776601683794
outer loop
vertex 2.242 0.44000000000000045 0.14666666666666595
vertex 1.9599999999999997 0.4400000000000004 0.1466666666666661
vertex 8.980743193747264e-18 0.44 0.1466666666666667
endloop
endfacet
facet normal 0 -0.9486832980505138 -0.31622776601683794
outer loop
vertex 2.242 0.44000000000000045 0.14666666666666595
vertex 8.980743193747264e-18 0.44 0.1466666666666667
vertex 8.980743193747258e-18 0.1466666666666667 0.14666666666666667
endloop
endfacet
facet normal 0 -0.9486832980505138 -0.31622776601683794
outer loop
vertex 2.242 0.44000000000000045 0.14666666666666595
vertex 8.980743193747258e-18 0.1466666666666667 0.14666666666666667
vertex 2.242 0.1466666666666671 0.14666666666666592
endloop
endfacet
facet normal -0.012348947412171213 -0.043433912137646656 0.9989799791658642
outer loop
vertex 2.1399999999999992 2.931564191171686 0.14666666666666628
vertex 1.9599999999999995 2.9827410349049086 0.14666666666666633
vertex 8.980743193747325e-18 3.5399999999999996 0.14666666666666686
endloop
endfacet
facet normal -0.012348947412171213 -0.043433912137646656 0.9989799791658642
outer loop
vertex 2.1399999999999992 2.931564191171686 0.14666666666666628
vertex 8.980743193747325e-18 3.5399999999999996 0.14666666666666686
vertex 8.980743193747313e-18 3.082561755393868 0.14666666666666683
endloop
endfacet
facet normal -0.012348947412171213 -0.043433912137646656 0.9989799791658642
outer loop
vertex 2.1399999999999992 2.931564191171686 0.14666666666666628
vertex 8.980743193747313e-18 3.082561755393868 0.14666666666666683
vertex 1.9599999999999995 2.525302790298778 0.14666666666666633
endloop
endfacet
facet normal -0.012348947412171213 -0.043433912137646656 0.9989799791658642
outer loop
vertex 2.1399999999999992 2.931564191171686 0.14666666666666628
vertex 1.9599999999999995 2.525302790298778 0.14666666666666633
vertex 2.036201547181369 2.5036374865636066 0.14666666666666614
endloop
endfacet
facet normal -0.012348947412171213 -0.043433912137646656 0.9989799791658642
outer loop
vertex 2.1399999999999992 2.931564191171686 0.14666666666666628
vertex 2.036201547181369 2.5036374865636066 0.14666666666666614
vertex 2.14 2.8687190379923955 0.14666666666666633
endloop
endfacet
facet normal -0.012348947412171213 -0.043433912137646656 0.9989799791658642
outer loop
vertex 2.1399999999999992 2.931564191171686 0.14666666666666628
vertex 2.14 2.8687190379923955 0.14666666666666633
vertex 2.1565315354193664 2.9268640144782014 0.1466666666666661
endloop
endfacet
facet normal 3.9239794814778934e-15 1.5718034792978446e-15 1
outer loop
vertex 2.139999999999998 9.53128096200761 0.14666666666666672
vertex 2.036201547181369 9.896362513436399 0.14666666666666656
vertex 1.9599999999999929 9.874697209701246 0.1466666666666669
endloop
endfacet
facet normal 3.9239794814778934e-15 1.5718034792978446e-15 1
outer loop
vertex 2.139999999999998 9.53128096200761 0.14666666666666672
vertex 1.9599999999999929 9.874697209701246 0.1466666666666669
vertex 8.98074319374743e-18 9.317438244606134 0.1466666666666672
endloop
endfacet
facet normal 3.9239794814778934e-15 1.5718034792978446e-15 1
outer loop
vertex 2.139999999999998 9.53128096200761 0.14666666666666672
vertex 8.98074319374743e-18 9.317438244606134 0.1466666666666672
vertex 8.980743193747424e-18 8.86 0.14666666666666717
endloop
endfacet
facet normal 3.9239794814778934e-15 1.5718034792978446e-15 1
outer loop
vertex 2.139999999999998 9.53128096200761 0.14666666666666672
vertex 8.980743193747424e-18 8.86 0.14666666666666717
vertex 1.9599999999999986 9.4172589650951 0.14666666666666672
endloop
endfacet
facet normal 3.9239794814778934e-15 1.5718034792978446e-15 1
outer loop
vertex 2.139999999999998 9.53128096200761 0.14666666666666672
vertex 1.9599999999999986 9.4172589650951 0.14666666666666672
vertex 2.1399999999999966 9.468435808828321 0.14666666666666672
endloop
endfacet
facet normal 3.9239794814778934e-15 1.5718034792978446e-15 1
outer loop
vertex 2.139999999999998 9.53128096200761 0.14666666666666672
vertex 2.1399999999999966 9.468435808828321 0.14666666666666672
vertex 2.1565315354193664 9.473135985521798 0.14666666666666647
endloop
endfacet
facet normal 3.3306690738754696e-16 -5.551115123125783e-17 1
outer loop
vertex 2.242 12.253333333333334 0.1466666666666666
vertex 8.980743193747486e-18 12.253333333333334 0.14666666666666736
vertex 8.98074319374748e-18 11.96 0.14666666666666733
endloop
endfacet
facet normal 3.3306690738754696e-16 -5.551115123125783e-17 1
outer loop
vertex 2.242 12.253333333333334 0.1466666666666666
vertex 8.98074319374748e-18 11.96 0.14666666666666733
vertex 2.242 11.96 0.14666666666666658
endloop
endfacet
facet normal 5.442269728554673e-16 -1 0
outer loop
vertex 2.242 0.44000000000000045 0.4399999999999994
vertex 2.1399999999999997 0.4400000000000004 0.43999999999999995
vertex 2.1399999999999997 0.4400000000000004 0.21999999999999992
endloop
endfacet
facet normal 5.442269728554673e-16 -1 0
outer loop
vertex 2.242 0.44000000000000045 0.4399999999999994
vertex 2.1399999999999997 0.4400000000000004 0.21999999999999992
vertex 2.1399999999999997 0.4400000000000004 0.1466666666666661
endloop
endfacet
facet normal 5.442269728554673e-16 -1 0
outer loop
vertex 2.242 0.44000000000000045 0.4399999999999994
vertex 2.1399999999999997 0.4400000000000004 0.1466666666666661
vertex 2.242 0.44000000000000045 0.14666666666666595
endloop
endfacet
facet normal 0 -1 0
outer loop
vertex 2.1399999999999997 0.4400000000000004 0.21999999999999992
vertex 2.036201547181369 0.4400000000000004 0.2199999999999999
vertex 1.9599999999999997 0.4400000000000004 0.21999999999999986
endloop
endfacet
facet normal 0 -1 0
outer loop
vertex 2.1399999999999997 0.4400000000000004 0.21999999999999992
vertex 1.9599999999999997 0.4400000000000004 0.21999999999999986
vertex 1.9599999999999997 0.4400000000000004 0.1466666666666661
endloop
endfacet
facet normal 0 -1 0
outer loop
vertex 2.1399999999999997 0.4400000000000004 0.21999999999999992
vertex 1.9599999999999997 0.4400000000000004 0.1466666666666661
vertex 2.1399999999999997 0.4400000000000004 0.1466666666666661
endloop
endfacet
facet normal 1.6993209560589135e-16 -1 0
outer loop
vertex 1.9599999999999997 0.4400000000000004 0.21999999999999986
vertex 1.9599999999999997 0.4400000000000004 0.43999999999999995
vertex 8.980743193747258e-18 0.44000000000000006 0.44
endloop
endfacet
facet normal 1.6993209560589135e-16 -1 0
outer loop
vertex 1.9599999999999997 0.4400000000000004 0.21999999999999986
vertex 8.980743193747258e-18 0.44000000000000006 0.44
vertex 8.980743193747264e-18 0.44 0.1466666666666667
endloop
endfacet
facet normal 1.6993209560589135e-16 -1 0
outer loop
vertex 1.9599999999999997 0.4400000000000004 0.21999999999999986
vertex 8.980743193747264e-18 0.44 0.1466666666666667
vertex 1.9599999999999997 0.4400000000000004 0.1466666666666661
endloop
endfacet
facet normal -3.260315739634912e-15 -0.7071067811865464 0.7071067811865487
outer loop
vertex 2.36 2.694222958124178e-17 -1.3100631690576846e-16
vertex 2.36 0.14666666666666697 0.1466666666666663
vertex 2.242 0.1466666666666671 0.14666666666666592
endloop
endfacet
facet normal -3.260315739634912e-15 -0.7071067811865464 0.7071067811865487
outer loop
vertex 2.36 2.694222958124178e-17 -1.3100631690576846e-16
vertex 2.242 0.1466666666666671 0.14666666666666592
vertex 8.980743193747258e-18 0.1466666666666667 0.14666666666666667
endloop
endfacet
facet normal -3.260315739634912e-15 -0.7071067811865464 0.7071067811865487
outer loop
vertex 2.36 2.694222958124178e-17 -1.3100631690576846e-16
vertex 8.980743193747258e-18 0.1466666666666667 0.14666666666666667
vertex -1.5053010847239246e-49 2.6942229581241773e-17 -1.2161151809056478e-33
endloop
endfacet
facet normal 0 -0.7071067811865477 0.7071067811865475
outer loop
vertex 2.36 0.14666666666666697 0.1466666666666663
vertex 2.36 0.4400000000000002 0.4399999999999997
vertex 2.242 0.44000000000000045 0.4399999999999994
endloop
endfacet
facet normal 0 -0.7071067811865477 0.7071067811865475
outer loop
vertex 2.36 0.14666666666666697 0.1466666666666663
vertex 2.242 0.44000000000000045 0.4399999999999994
vertex 2.242 0.1466666666666671 0.14666666666666592
endloop
endfacet
facet normal -1 -3.0814879110195774e-33 6.123233995736766e-17
outer loop
vertex 2.694222958124176e-17 3.082561755393868 0.44
vertex 8.980743193747313e-18 3.082561755393868 0.14666666666666683
vertex 8.980743193747264e-18 0.44 0.1466666666666667
endloop
endfacet
facet normal -1 -3.0814879110195774e-33 6.123233995736766e-17
outer loop
vertex 2.694222958124176e-17 3.082561755393868 0.44
vertex 8.980743193747264e-18 0.44 0.1466666666666667
vertex 8.980743193747258e-18 0.44000000000000006 0.44
endloop
endfacet
facet normal -1 -3.0814879110195774e-33 6.123233995736766e-17
outer loop
vertex 2.6942229581241742e-17 8.859999999999996 0.44
vertex 8.980743193747424e-18 8.86 0.14666666666666717
vertex 8.980743193747325e-18 3.5399999999999996 0.14666666666666686
endloop
endfacet
facet normal -1 -3.0814879110195774e-33 6.123233995736766e-17
outer loop
vertex 2.6942229581241742e-17 8.859999999999996 0.44
vertex 8.980743193747325e-18 3.5399999999999996 0.14666666666666686
vertex 2.6942229581241757e-17 3.5399999999999996 0.44
endloop
endfacet
facet normal 0 -1 0
outer loop
vertex 2.6942229581241732e-17 11.96 0.44
vertex -2.206974934459692e-15 11.96 0.22000000000000056
vertex 8.98074319374748e-18 11.96 0.14666666666666733
endloop
endfacet
facet normal 0 -1 0
outer loop
vertex 2.6942229581241732e-17 11.96 0.44
vertex 8.98074319374748e-18 11.96 0.14666666666666733
vertex 8.98074319374743e-18 9.317438244606134 0.1466666666666672
endloop
endfacet
facet normal 0 -1 0
outer loop
vertex 2.6942229581241732e-17 11.96 0.44
vertex 8.98074319374743e-18 9.317438244606134 0.1466666666666672
vertex 2.6942229581241742e-17 9.31743824460613 0.44
endloop
endfacet
facet normal 1 3.468478819026121e-32 -1.0157274581072688e-15
outer loop
vertex 8.980743193747264e-18 0.44 0.1466666666666667
vertex 8.980743193747313e-18 3.082561755393868 0.14666666666666683
vertex 8.980743193747325e-18 3.5399999999999996 0.14666666666666686
endloop
endfacet
facet normal 1 3.468478819026121e-32 -1.0157274581072688e-15
outer loop
vertex 8.980743193747264e-18 0.44 0.1466666666666667
vertex 8.980743193747325e-18 3.5399999999999996 0.14666666666666686
vertex 8.980743193747424e-18 8.86 0.14666666666666717
endloop
endfacet
facet normal 1 3.468478819026121e-32 -1.0157274581072688e-15
outer loop
vertex 8.980743193747264e-18 0.44 0.1466666666666667
vertex 8.980743193747424e-18 8.86 0.14666666666666717
vertex 8.98074319374743e-18 9.317438244606134 0.1466666666666672
endloop
endfacet
facet normal 1 3.468478819026121e-32 -1.0157274581072688e-15
outer loop
vertex 8.980743193747264e-18 0.44 0.1466666666666667
vertex 8.98074319374743e-18 9.317438244606134 0.1466666666666672
vertex 8.98074319374748e-18 11.96 0.14666666666666733
endloop
endfacet
facet normal 1 3.468478819026121e-32 -1.0157274581072688e-15
outer loop
vertex 8.980743193747264e-18 0.44 0.1466666666666667
vertex 8.98074319374748e-18 11.96 0.14666666666666733
vertex 8.980743193747486e-18 12.253333333333334 0.14666666666666736
endloop
endfacet
facet normal 1 3.468478819026121e-32 -1.0157274581072688e-15
outer loop
vertex 8.980743193747264e-18 0.44 0.1466666666666667
vertex 8.980743193747486e-18 12.253333333333334 0.14666666666666736
vertex -4.930380657631323e-33 12.4 6.883382752675971e-16
endloop
endfacet
facet normal 1 3.468478819026121e-32 -1.0157274581072688e-15
outer loop
vertex 8.980743193747264e-18 0.44 0.1466666666666667
vertex -4.930380657631323e-33 12.4 6.883382752675971e-16
vertex -1.5053010847239246e-49 2.6942229581241773e-17 -1.2161151809056478e-33
endloop
endfacet
facet normal 1 3.468478819026121e-32 -1.0157274581072688e-15
outer loop
vertex 8.980743193747264e-18 0.44 0.1466666666666667
vertex -1.5053010847239246e-49 2.6942229581241773e-17 -1.2161151809056478e-33
vertex 8.980743193747258e-18 0.1466666666666667 0.14666666666666667
endloop
endfacet
facet normal 0 1 0
outer loop
vertex 1.9599999999999977 11.96 0.4400000000000011
vertex 1.9599999999999975 11.96 0.22000000000000056
vertex -2.206974934459692e-15 11.96 0.22000000000000056
endloop
endfacet
facet normal 0 1 0
outer loop
vertex 1.9599999999999977 11.96 0.4400000000000011
vertex -2.206974934459692e-15 11.96 0.22000000000000056
vertex 2.6942229581241732e-17 11.96 0.44
endloop
endfacet
facet normal 0 1 0
outer loop
vertex 2.241999999999998 11.96 0.4400000000000011
vertex 2.2419999999999978 11.96 0.22000000000000056
vertex 2.1399999999999975 11.96 0.22000000000000056
endloop
endfacet
facet normal 0 1 0
outer loop
vertex 2.241999999999998 11.96 0.4400000000000011
vertex 2.1399999999999975 11.96 0.22000000000000056
vertex 2.1399999999999975 11.96 0.4400000000000011
endloop
endfacet
facet normal 0 -1 0
outer loop
vertex 1.9599999999999975 11.96 0.22000000000000056
vertex 2.036201547181369 11.96 0.22000000000000053
vertex 2.1399999999999975 11.96 0.22000000000000056
endloop
endfacet
facet normal 0 -1 0
outer loop
vertex 1.9599999999999975 11.96 0.22000000000000056
vertex 2.1399999999999975 11.96 0.22000000000000056
vertex 2.2419999999999978 11.96 0.22000000000000056
endloop
endfacet
facet normal 0 -1 0
outer loop
vertex 1.9599999999999975 11.96 0.22000000000000056
vertex 2.2419999999999978 11.96 0.22000000000000056
vertex 2.242 11.96 0.14666666666666658
endloop
endfacet
facet normal 0 -1 0
outer loop
vertex 1.9599999999999975 11.96 0.22000000000000056
vertex 2.242 11.96 0.14666666666666658
vertex 8.98074319374748e-18 11.96 0.14666666666666733
endloop
endfacet
facet normal 0 -1 0
outer loop
vertex 1.9599999999999975 11.96 0.22000000000000056
vertex 8.98074319374748e-18 11.96 0.14666666666666733
vertex -2.206974934459692e-15 11.96 0.22000000000000056
endloop
endfacet
facet normal 0 0.707106781186548 0.7071067811865471
outer loop
vertex 2.3599999999999968 11.960000000000015 0.44000000000000306
vertex 2.3599999999999968 12.253333333333345 0.1466666666666745
vertex 2.242 12.253333333333334 0.1466666666666666
endloop
endfacet
facet normal 0 0.707106781186548 0.7071067811865471
outer loop
vertex 2.3599999999999968 11.960000000000015 0.44000000000000306
vertex 2.242 12.253333333333334 0.1466666666666666
vertex 2.241999999999998 11.96 0.4400000000000011
endloop
endfacet
facet normal -1.1110400025432203e-13 0.707106781186591 0.7071067811865039
outer loop
vertex 2.242 12.253333333333334 0.1466666666666666
vertex 2.3599999999999968 12.253333333333345 0.1466666666666745
vertex 2.3599999999999968 12.4 5.573319583618287e-16
endloop
endfacet
facet normal -1.1110400025432203e-13 0.707106781186591 0.7071067811865039
outer loop
vertex 2.242 12.253333333333334 0.1466666666666666
vertex 2.3599999999999968 12.4 5.573319583618287e-16
vertex -4.930380657631323e-33 12.4 6.883382752675971e-16
endloop
endfacet
facet normal -1.1110400025432203e-13 0.707106781186591 0.7071067811865039
outer loop
vertex 2.242 12.253333333333334 0.1466666666666666
vertex -4.930380657631323e-33 12.4 6.883382752675971e-16
vertex 8.980743193747486e-18 12.253333333333334 0.14666666666666736
endloop
endfacet
facet normal 0.27347724599544926 0.9618784725331702 0
outer loop
vertex 2.694222958124176e-17 3.082561755393868 0.44
vertex 1.9599999999999995 2.525302790298778 0.4400000000000001
vertex 1.9599999999999995 2.525302790298778 0.22
endloop
endfacet
facet normal 0.27347724599544926 0.9618784725331702 0
outer loop
vertex 2.694222958124176e-17 3.082561755393868 0.44
vertex 1.9599999999999995 2.525302790298778 0.22
vertex 1.9599999999999995 2.525302790298778 0.14666666666666633
endloop
endfacet
facet normal 0.27347724599544926 0.9618784725331702 0
outer loop
vertex 2.694222958124176e-17 3.082561755393868 0.44
vertex 1.9599999999999995 2.525302790298778 0.14666666666666633
vertex 8.980743193747313e-18 3.082561755393868 0.14666666666666683
endloop
endfacet
facet normal 0.27347724599544954 0.96187847253317 0
outer loop
vertex 1.9599999999999995 2.525302790298778 0.22
vertex 2.036201547181369 2.503637486563607 0.22000000000000003
vertex 2.036201547181369 2.5036374865636066 0.14666666666666614
endloop
endfacet
facet normal 0.27347724599544954 0.96187847253317 0
outer loop
vertex 1.9599999999999995 2.525302790298778 0.22
vertex 2.036201547181369 2.5036374865636066 0.14666666666666614
vertex 1.9599999999999995 2.525302790298778 0.14666666666666633
endloop
endfacet
facet normal -0.2734772459954427 -0.961878472533172 0
outer loop
vertex 2.1565315354193655 2.926864014478202 0.4400000000000001
vertex 2.1399999999999992 2.931564191171686 0.4400000000000001
vertex 2.1399999999999992 2.931564191171686 0.22000000000000006
endloop
endfacet
facet normal -0.2734772459954427 -0.961878472533172 0
outer loop
vertex 2.1565315354193655 2.926864014478202 0.4400000000000001
vertex 2.1399999999999992 2.931564191171686 0.22000000000000006
vertex 2.1399999999999992 2.931564191171686 0.14666666666666628
endloop
endfacet
facet normal -0.2734772459954427 -0.961878472533172 0
outer loop
vertex 2.1565315354193655 2.926864014478202 0.4400000000000001
vertex 2.1399999999999992 2.931564191171686 0.14666666666666628
vertex 2.1565315354193664 2.9268640144782014 0.1466666666666661
endloop
endfacet
facet normal -0.27347724599545 -0.9618784725331699 0
outer loop
vertex 2.1399999999999992 2.931564191171686 0.22000000000000006
vertex 1.9599999999999995 2.9827410349049086 0.22000000000000003
vertex 1.9599999999999995 2.9827410349049086 0.14666666666666633
endloop
endfacet
facet normal -0.27347724599545 -0.9618784725331699 0
outer loop
vertex 2.1399999999999992 2.931564191171686 0.22000000000000006
vertex 1.9599999999999995 2.9827410349049086 0.14666666666666633
vertex 2.1399999999999992 2.931564191171686 0.14666666666666628
endloop
endfacet
facet normal -0.27347724599544965 -0.96187847253317 0
outer loop
vertex 1.9599999999999995 2.9827410349049086 0.22000000000000003
vertex 1.9599999999999995 2.9827410349049086 0.4400000000000001
vertex 2.6942229581241757e-17 3.5399999999999996 0.44
endloop
endfacet
facet normal -0.27347724599544965 -0.96187847253317 0
outer loop
vertex 1.9599999999999995 2.9827410349049086 0.22000000000000003
vertex 2.6942229581241757e-17 3.5399999999999996 0.44
vertex 8.980743193747325e-18 3.5399999999999996 0.14666666666666686
endloop
endfacet
facet normal -0.27347724599544965 -0.96187847253317 0
outer loop
vertex 1.9599999999999995 2.9827410349049086 0.22000000000000003
vertex 8.980743193747325e-18 3.5399999999999996 0.14666666666666686
vertex 1.9599999999999995 2.9827410349049086 0.14666666666666633
endloop
endfacet
facet normal -2.8226009100639612e-15 -1.3393048652780247e-16 1
outer loop
vertex 2.242 0.44000000000000045 0.4399999999999994
vertex 2.36 0.4400000000000002 0.4399999999999997
vertex 2.359999999999999 2.9268640144782014 0.44000000000000006
endloop
endfacet
facet normal -2.8226009100639612e-15 -1.3393048652780247e-16 1
outer loop
vertex 2.242 0.44000000000000045 0.4399999999999994
vertex 2.359999999999999 2.9268640144782014 0.44000000000000006
vertex 2.1565315354193655 2.926864014478202 0.4400000000000001
endloop
endfacet
facet normal -2.8226009100639612e-15 -1.3393048652780247e-16 1
outer loop
vertex 2.242 0.44000000000000045 0.4399999999999994
vertex 2.1565315354193655 2.926864014478202 0.4400000000000001
vertex 2.1399999999999992 2.8687190379923937 0.44000000000000006
endloop
endfacet
facet normal -2.8226009100639612e-15 -1.3393048652780247e-16 1
outer loop
vertex 2.242 0.44000000000000045 0.4399999999999994
vertex 2.1399999999999992 2.8687190379923937 0.44000000000000006
vertex 2.1399999999999997 0.4400000000000004 0.43999999999999995
endloop
endfacet
facet normal 5.551115123125783e-17 -5.551115123125783e-17 1
outer loop
vertex 1.9599999999999997 0.4400000000000004 0.43999999999999995
vertex 1.9599999999999995 2.525302790298778 0.4400000000000001
vertex 2.694222958124176e-17 3.082561755393868 0.44
endloop
endfacet
facet normal 5.551115123125783e-17 -5.551115123125783e-17 1
outer loop
vertex 1.9599999999999997 0.4400000000000004 0.43999999999999995
vertex 2.694222958124176e-17 3.082561755393868 0.44
vertex 8.980743193747258e-18 0.44000000000000006 0.44
endloop
endfacet
facet normal 5.551115123125783e-17 -5.551115123125783e-17 1
outer loop
vertex 1.9599999999999982 9.417258965095096 0.4400000000000004
vertex 2.6942229581241742e-17 8.859999999999996 0.44
vertex 2.6942229581241757e-17 3.5399999999999996 0.44
endloop
endfacet
facet normal 5.551115123125783e-17 -5.551115123125783e-17 1
outer loop
vertex 1.9599999999999982 9.417258965095096 0.4400000000000004
vertex 2.6942229581241757e-17 3.5399999999999996 0.44
vertex 1.9599999999999995 2.9827410349049086 0.4400000000000001
endloop
endfacet
facet normal 5.551115123125783e-17 -5.551115123125783e-17 1
outer loop
vertex 2.359999999999999 2.9268640144782014 0.44000000000000006
vertex 2.3599999999999977 9.473135985521804 0.4400000000000004
vertex 2.156531535419365 9.473135985521804 0.4400000000000004
endloop
endfacet
facet normal 5.551115123125783e-17 -5.551115123125783e-17 1
outer loop
vertex 2.359999999999999 2.9268640144782014 0.44000000000000006
vertex 2.156531535419365 9.473135985521804 0.4400000000000004
vertex 2.139999999999998 9.46843580882832 0.4400000000000004
endloop
endfacet
facet normal 5.551115123125783e-17 -5.551115123125783e-17 1
outer loop
vertex 2.359999999999999 2.9268640144782014 0.44000000000000006
vertex 2.139999999999998 9.46843580882832 0.4400000000000004
vertex 2.1399999999999992 2.931564191171686 0.4400000000000001
endloop
endfacet
facet normal 5.551115123125783e-17 -5.551115123125783e-17 1
outer loop
vertex 2.359999999999999 2.9268640144782014 0.44000000000000006
vertex 2.1399999999999992 2.931564191171686 0.4400000000000001
vertex 2.1565315354193655 2.926864014478202 0.4400000000000001
endloop
endfacet
facet normal 5.551115123125783e-17 -5.551115123125783e-17 1
outer loop
vertex 1.9599999999999982 9.874697209701225 0.44000000000000045
vertex 1.9599999999999977 11.96 0.4400000000000011
vertex 2.6942229581241732e-17 11.96 0.44
endloop
endfacet
facet normal 5.551115123125783e-17 -5.551115123125783e-17 1
outer loop
vertex 1.9599999999999982 9.874697209701225 0.44000000000000045
vertex 2.6942229581241732e-17 11.96 0.44
vertex 2.6942229581241742e-17 9.31743824460613 0.44
endloop
endfacet
facet normal -1.6465171975373157e-14 -1.0714438922224133e-15 1
outer loop
vertex 2.3599999999999977 9.473135985521804 0.4400000000000004
vertex 2.3599999999999968 11.960000000000015 0.44000000000000306
vertex 2.241999999999998 11.96 0.4400000000000011
endloop
endfacet
facet normal -1.6465171975373157e-14 -1.0714438922224133e-15 1
outer loop
vertex 2.3599999999999977 9.473135985521804 0.4400000000000004
vertex 2.241999999999998 11.96 0.4400000000000011
vertex 2.1399999999999975 11.96 0.4400000000000011
endloop
endfacet
facet normal -1.6465171975373157e-14 -1.0714438922224133e-15 1
outer loop
vertex 2.3599999999999977 9.473135985521804 0.4400000000000004
vertex 2.1399999999999975 11.96 0.4400000000000011
vertex 2.139999999999998 9.53128096200761 0.44000000000000045
endloop
endfacet
facet normal -1.6465171975373157e-14 -1.0714438922224133e-15 1
outer loop
vertex 2.3599999999999977 9.473135985521804 0.4400000000000004
vertex 2.139999999999998 9.53128096200761 0.44000000000000045
vertex 2.156531535419365 9.473135985521804 0.4400000000000004
endloop
endfacet
facet normal 0.27347724599545126 -0.9618784725331697 0
outer loop
vertex 2.0362015471813635 9.896362513436417 0.22000000000000058
vertex 1.9599999999999929 9.874697209701246 0.22000000000000056
vertex 1.9599999999999929 9.874697209701246 0.1466666666666669
endloop
endfacet
facet normal 0.27347724599545126 -0.9618784725331697 0
outer loop
vertex 2.0362015471813635 9.896362513436417 0.22000000000000058
vertex 1.9599999999999929 9.874697209701246 0.1466666666666669
vertex 2.036201547181369 9.896362513436399 0.14666666666666656
endloop
endfacet
facet normal 0.2734772459954515 -0.9618784725331695 -9.982296531503203e-14
outer loop
vertex 1.9599999999999929 9.874697209701246 0.22000000000000056
vertex 1.9599999999999982 9.874697209701225 0.44000000000000045
vertex 2.6942229581241742e-17 9.31743824460613 0.44
endloop
endfacet
facet normal 0.2734772459954515 -0.9618784725331695 -9.982296531503203e-14
outer loop
vertex 1.9599999999999929 9.874697209701246 0.22000000000000056
vertex 2.6942229581241742e-17 9.31743824460613 0.44
vertex 8.98074319374743e-18 9.317438244606134 0.1466666666666672
endloop
endfacet
facet normal 0.2734772459954515 -0.9618784725331695 -9.982296531503203e-14
outer loop
vertex 1.9599999999999929 9.874697209701246 0.22000000000000056
vertex 8.98074319374743e-18 9.317438244606134 0.1466666666666672
vertex 1.9599999999999929 9.874697209701246 0.1466666666666669
endloop
endfacet
facet normal -0.27347724599545387 0.9618784725331688 1.4859456777795944e-14
outer loop
vertex 2.6942229581241742e-17 8.859999999999996 0.44
vertex 1.9599999999999982 9.417258965095096 0.4400000000000004
vertex 1.9599999999999986 9.4172589650951 0.22000000000000053
endloop
endfacet
facet normal -0.27347724599545387 0.9618784725331688 1.4859456777795944e-14
outer loop
vertex 2.6942229581241742e-17 8.859999999999996 0.44
vertex 1.9599999999999986 9.4172589650951 0.22000000000000053
vertex 1.9599999999999986 9.4172589650951 0.14666666666666672
endloop
endfacet
facet normal -0.27347724599545387 0.9618784725331688 1.4859456777795944e-14
outer loop
vertex 2.6942229581241742e-17 8.859999999999996 0.44
vertex 1.9599999999999986 9.4172589650951 0.14666666666666672
vertex 8.980743193747424e-18 8.86 0.14666666666666717
endloop
endfacet
facet normal -0.27347724599544954 0.9618784725331702 0
outer loop
vertex 1.9599999999999986 9.4172589650951 0.22000000000000053
vertex 2.1399999999999966 9.468435808828321 0.22000000000000058
vertex 2.1399999999999966 9.468435808828321 0.14666666666666672
endloop
endfacet
facet normal -0.27347724599544954 0.9618784725331702 0
outer loop
vertex 1.9599999999999986 9.4172589650951 0.22000000000000053
vertex 2.1399999999999966 9.468435808828321 0.14666666666666672
vertex 1.9599999999999986 9.4172589650951 0.14666666666666672
endloop
endfacet
facet normal -0.273477245995453 0.961878472533169 9.422655843701992e-15
outer loop
vertex 2.1399999999999966 9.468435808828321 0.22000000000000058
vertex 2.139999999999998 9.46843580882832 0.4400000000000004
vertex 2.156531535419365 9.473135985521804 0.4400000000000004
endloop
endfacet
facet normal -0.273477245995453 0.961878472533169 9.422655843701992e-15
outer loop
vertex 2.1399999999999966 9.468435808828321 0.22000000000000058
vertex 2.156531535419365 9.473135985521804 0.4400000000000004
vertex 2.1565315354193664 9.473135985521798 0.14666666666666647
endloop
endfacet
facet normal -0.273477245995453 0.961878472533169 9.422655843701992e-15
outer loop
vertex 2.1399999999999966 9.468435808828321 0.22000000000000058
vertex 2.1565315354193664 9.473135985521798 0.14666666666666647
vertex 2.1399999999999966 9.468435808828321 0.14666666666666672
endloop
endfacet
facet normal 1 3.5714796407413537e-16 3.5714796407413645e-16
outer loop
vertex 2.3599999999999968 12.253333333333345 0.1466666666666745
vertex 2.3599999999999968 11.960000000000015 0.44000000000000306
vertex 2.3599999999999977 9.473135985521804 0.4400000000000004
endloop
endfacet
facet normal 1 3.5714796407413537e-16 3.5714796407413645e-16
outer loop
vertex 2.3599999999999968 12.253333333333345 0.1466666666666745
vertex 2.3599999999999977 9.473135985521804 0.4400000000000004
vertex 2.359999999999999 2.9268640144782014 0.44000000000000006
endloop
endfacet
facet normal 1 3.5714796407413537e-16 3.5714796407413645e-16
outer loop
vertex 2.3599999999999968 12.253333333333345 0.1466666666666745
vertex 2.359999999999999 2.9268640144782014 0.44000000000000006
vertex 2.36 0.4400000000000002 0.4399999999999997
endloop
endfacet
facet normal 1 3.5714796407413537e-16 3.5714796407413645e-16
outer loop
vertex 2.3599999999999968 12.253333333333345 0.1466666666666745
vertex 2.36 0.4400000000000002 0.4399999999999997
vertex 2.36 0.14666666666666697 0.1466666666666663
endloop
endfacet
facet normal 1 3.5714796407413537e-16 3.5714796407413645e-16
outer loop
vertex 2.3599999999999968 12.253333333333345 0.1466666666666745
vertex 2.36 0.14666666666666697 0.1466666666666663
vertex 2.36 2.694222958124178e-17 -1.3100631690576846e-16
endloop
endfacet
facet normal 1 3.5714796407413537e-16 3.5714796407413645e-16
outer loop
vertex 2.3599999999999968 12.253333333333345 0.1466666666666745
vertex 2.36 2.694222958124178e-17 -1.3100631690576846e-16
vertex 2.3599999999999968 12.4 5.573319583618287e-16
endloop
endfacet
facet normal -1 0 0
outer loop
vertex 2.242 0.44000000000000045 0.14666666666666595
vertex 2.242 0.1466666666666671 0.14666666666666592
vertex 2.242 0.44000000000000045 0.4399999999999994
endloop
endfacet
facet normal -1 2.8650197519809904e-30 -3.0278809762504007e-14
outer loop
vertex 2.242 12.253333333333334 0.1466666666666666
vertex 2.242 11.96 0.14666666666666658
vertex 2.2419999999999978 11.96 0.22000000000000056
endloop
endfacet
facet normal -1 2.8650197519809904e-30 -3.0278809762504007e-14
outer loop
vertex 2.242 12.253333333333334 0.1466666666666666
vertex 2.2419999999999978 11.96 0.22000000000000056
vertex 2.241999999999998 11.96 0.4400000000000011
endloop
endfacet
facet normal -1 0 -4.440892098500626e-16
outer loop
vertex 2.1399999999999992 2.8687190379923937 0.44000000000000006
vertex 2.1399999999999997 2.868719037992395 0.22000000000000006
vertex 2.1399999999999997 0.4400000000000004 0.21999999999999992
endloop
endfacet
facet normal -1 0 -4.440892098500626e-16
outer loop
vertex 2.1399999999999992 2.8687190379923937 0.44000000000000006
vertex 2.1399999999999997 0.4400000000000004 0.21999999999999992
vertex 2.1399999999999997 0.4400000000000004 0.43999999999999995
endloop
endfacet
facet normal -1 0 -4.440892098500626e-16
outer loop
vertex 2.139999999999998 9.46843580882832 0.4400000000000004
vertex 2.1399999999999966 9.468435808828321 0.22000000000000058
vertex 2.1399999999999992 2.931564191171686 0.22000000000000006
endloop
endfacet
facet normal -1 0 -4.440892098500626e-16
outer loop
vertex 2.139999999999998 9.46843580882832 0.4400000000000004
vertex 2.1399999999999992 2.931564191171686 0.22000000000000006
vertex 2.1399999999999992 2.931564191171686 0.4400000000000001
endloop
endfacet
facet normal -1 0 -4.440892098500626e-16
outer loop
vertex 2.1399999999999975 11.96 0.4400000000000011
vertex 2.1399999999999975 11.96 0.22000000000000056
vertex 2.1399999999999997 9.53128096200761 0.22000000000000006
endloop
endfacet
facet normal -1 0 -4.440892098500626e-16
outer loop
vertex 2.1399999999999975 11.96 0.4400000000000011
vertex 2.1399999999999997 9.53128096200761 0.22000000000000006
vertex 2.139999999999998 9.53128096200761 0.44000000000000045
endloop
endfacet
facet normal 1 0 0
outer loop
vertex 1.9599999999999995 2.525302790298778 0.22
vertex 1.9599999999999995 2.525302790298778 0.4400000000000001
vertex 1.9599999999999997 0.4400000000000004 0.43999999999999995
endloop
endfacet
facet normal 1 0 0
outer loop
vertex 1.9599999999999995 2.525302790298778 0.22
vertex 1.9599999999999997 0.4400000000000004 0.43999999999999995
vertex 1.9599999999999997 0.4400000000000004 0.21999999999999986
endloop
endfacet
facet normal 1 0 0
outer loop
vertex 1.9599999999999986 9.4172589650951 0.22000000000000053
vertex 1.9599999999999982 9.417258965095096 0.4400000000000004
vertex 1.9599999999999995 2.9827410349049086 0.4400000000000001
endloop
endfacet
facet normal 1 0 0
outer loop
vertex 1.9599999999999986 9.4172589650951 0.22000000000000053
vertex 1.9599999999999995 2.9827410349049086 0.4400000000000001
vertex 1.9599999999999995 2.9827410349049086 0.22000000000000003
endloop
endfacet
facet normal 1 0 0
outer loop
vertex 1.9599999999999975 11.96 0.22000000000000056
vertex 1.9599999999999977 11.96 0.4400000000000011
vertex 1.9599999999999982 9.874697209701225 0.44000000000000045
endloop
endfacet
facet normal 1 0 0
outer loop
vertex 1.9599999999999975 11.96 0.22000000000000056
vertex 1.9599999999999982 9.874697209701225 0.44000000000000045
vertex 1.9599999999999929 9.874697209701246 0.22000000000000056
endloop
endfacet
facet normal -1.942890293094024e-16 -5.551115123125783e-17 1
outer loop
vertex 2.1399999999999997 2.868719037992395 0.22000000000000006
vertex 2.036201547181369 2.503637486563607 0.22000000000000003
vertex 2.036201547181369 0.4400000000000004 0.2199999999999999
endloop
endfacet
facet normal -1.942890293094024e-16 -5.551115123125783e-17 1
outer loop
vertex 2.1399999999999997 2.868719037992395 0.22000000000000006
vertex 2.036201547181369 0.4400000000000004 0.2199999999999999
vertex 2.1399999999999997 0.4400000000000004 0.21999999999999992
endloop
endfacet
facet normal -1.942890293094024e-16 -5.551115123125783e-17 1
outer loop
vertex 2.1399999999999975 11.96 0.22000000000000056
vertex 2.036201547181369 11.96 0.22000000000000053
vertex 2.0362015471813635 9.896362513436417 0.22000000000000058
endloop
endfacet
facet normal -1.942890293094024e-16 -5.551115123125783e-17 1
outer loop
vertex 2.1399999999999975 11.96 0.22000000000000056
vertex 2.0362015471813635 9.896362513436417 0.22000000000000058
vertex 2.1399999999999997 9.53128096200761 0.22000000000000006
endloop
endfacet
facet normal -1.942890293094024e-16 -5.551115123125783e-17 1
outer loop
vertex 2.036201547181369 2.503637486563607 0.22000000000000003
vertex 1.9599999999999995 2.525302790298778 0.22
vertex 1.9599999999999997 0.4400000000000004 0.21999999999999986
endloop
endfacet
facet normal -1.942890293094024e-16 -5.551115123125783e-17 1
outer loop
vertex 2.036201547181369 2.503637486563607 0.22000000000000003
vertex 1.9599999999999997 0.4400000000000004 0.21999999999999986
vertex 2.036201547181369 0.4400000000000004 0.2199999999999999
endloop
endfacet
facet normal -1.942890293094024e-16 -5.551115123125783e-17 1
outer loop
vertex 2.1399999999999966 9.468435808828321 0.22000000000000058
vertex 1.9599999999999986 9.4172589650951 0.22000000000000053
vertex 1.9599999999999995 2.9827410349049086 0.22000000000000003
endloop
endfacet
facet normal -1.942890293094024e-16 -5.551115123125783e-17 1
outer loop
vertex 2.1399999999999966 9.468435808828321 0.22000000000000058
vertex 1.9599999999999995 2.9827410349049086 0.22000000000000003
vertex 2.1399999999999992 2.931564191171686 0.22000000000000006
endloop
endfacet
facet normal -1.942890293094024e-16 -5.551115123125783e-17 1
outer loop
vertex 2.036201547181369 11.96 0.22000000000000053
vertex 1.9599999999999975 11.96 0.22000000000000056
vertex 1.9599999999999929 9.874697209701246 0.22000000000000056
endloop
endfacet
facet normal -1.942890293094024e-16 -5.551115123125783e-17 1
outer loop
vertex 2.036201547181369 11.96 0.22000000000000053
vertex 1.9599999999999929 9.874697209701246 0.22000000000000056
vertex 2.0362015471813635 9.896362513436417 0.22000000000000058
endloop
endfacet
facet normal -0.96187847253317 0.27347724599545 4.689077019311341e-16
outer loop
vertex 2.036201547181369 2.503637486563607 0.22000000000000003
vertex 2.1399999999999997 2.868719037992395 0.22000000000000006
vertex 2.14 2.8687190379923955 0.14666666666666633
endloop
endfacet
facet normal -0.96187847253317 0.27347724599545 4.689077019311341e-16
outer loop
vertex 2.036201547181369 2.503637486563607 0.22000000000000003
vertex 2.14 2.8687190379923955 0.14666666666666633
vertex 2.036201547181369 2.5036374865636066 0.14666666666666614
endloop
endfacet
facet normal -0.9618784725331745 0.2734772459954339 -2.8552258445814725e-16
outer loop
vertex 2.1399999999999997 2.868719037992395 0.22000000000000006
vertex 2.1399999999999992 2.8687190379923937 0.44000000000000006
vertex 2.1565315354193655 2.926864014478202 0.4400000000000001
endloop
endfacet
facet normal -0.9618784725331745 0.2734772459954339 -2.8552258445814725e-16
outer loop
vertex 2.1399999999999997 2.868719037992395 0.22000000000000006
vertex 2.1565315354193655 2.926864014478202 0.4400000000000001
vertex 2.1565315354193664 2.9268640144782014 0.1466666666666661
endloop
endfacet
facet normal -0.9618784725331745 0.2734772459954339 -2.8552258445814725e-16
outer loop
vertex 2.1399999999999997 2.868719037992395 0.22000000000000006
vertex 2.1565315354193664 2.9268640144782014 0.1466666666666661
vertex 2.14 2.8687190379923955 0.14666666666666633
endloop
endfacet
facet normal -0.9618784725331685 -0.27347724599545514 -7.769418203850983e-15
outer loop
vertex 2.156531535419365 9.473135985521804 0.4400000000000004
vertex 2.139999999999998 9.53128096200761 0.44000000000000045
vertex 2.1399999999999997 9.53128096200761 0.22000000000000006
endloop
endfacet
facet normal -0.9618784725331685 -0.27347724599545514 -7.769418203850983e-15
outer loop
vertex 2.156531535419365 9.473135985521804 0.4400000000000004
vertex 2.1399999999999997 9.53128096200761 0.22000000000000006
vertex 2.139999999999998 9.53128096200761 0.14666666666666672
endloop
endfacet
facet normal -0.9618784725331685 -0.27347724599545514 -7.769418203850983e-15
outer loop
vertex 2.156531535419365 9.473135985521804 0.4400000000000004
vertex 2.139999999999998 9.53128096200761 0.14666666666666672
vertex 2.1565315354193664 9.473135985521798 0.14666666666666647
endloop
endfacet
facet normal -0.9618784725331698 -0.2734772459954505 -9.150438487211266e-16
outer loop
vertex 2.1399999999999997 9.53128096200761 0.22000000000000006
vertex 2.0362015471813635 9.896362513436417 0.22000000000000058
vertex 2.036201547181369 9.896362513436399 0.14666666666666656
endloop
endfacet
facet normal -0.9618784725331698 -0.2734772459954505 -9.150438487211266e-16
outer loop
vertex 2.1399999999999997 9.53128096200761 0.22000000000000006
vertex 2.036201547181369 9.896362513436399 0.14666666666666656
vertex 2.139999999999998 9.53128096200761 0.14666666666666672
endloop
endfacet
endsolid csg.js
